<?xml version="1.0" encoding="UTF-8"?>
<svg width="12px" height="12px" viewBox="0 0 12 12" version="1.1" xmlns="http://www.w3.org/2000/svg" xmlns:xlink="http://www.w3.org/1999/xlink">
    <title>切片</title>
    <g id="页面-1" stroke="none" stroke-width="1" fill="none" fill-rule="evenodd">
        <g id="邮箱" transform="translate(-472.000000, -191.000000)" fill-rule="nonzero">
            <g id="编组-10" transform="translate(374.000000, 178.000000)">
                <g id="附件" transform="translate(98.000000, 13.000000)">
                    <rect id="矩形" fill="#FFFFFF" opacity="0" x="0" y="0" width="12" height="12"></rect>
                    <path d="M1.58769141,7.86589453 L5.86389844,3.59063672 C6.16246875,3.28169531 6.52792969,3.12721875 6.96026953,3.12721875 C7.36245703,3.12721875 7.70342578,3.266625 7.98316406,3.54636328 C8.26196484,3.82611328 8.40230859,4.16707031 8.40230859,4.56925781 C8.40230859,5.00064844 8.24784375,5.36609766 7.93889063,5.66562891 L4.92200391,8.68251562 C4.87303125,8.73148828 4.81838672,8.75598047 4.76000391,8.75598047 C4.68087891,8.75598047 4.56597656,8.68062891 4.41338672,8.52805078 C4.26174609,8.37641016 4.18545703,8.26055859 4.18545703,8.18238281 C4.18545703,8.12305078 4.20994922,8.06935547 4.25892188,8.02038281 L7.27675781,5.00349609 C7.39919531,4.87069922 7.46042578,4.72657031 7.46042578,4.56928125 C7.46042578,4.42705078 7.41332813,4.30932422 7.32008203,4.21606641 C7.22777344,4.12282031 7.11003516,4.07666016 6.96686719,4.07666016 C6.80014453,4.07666016 6.65321484,4.13505469 6.52606641,4.25279297 L2.25080859,8.52805078 C1.94092969,8.83699219 1.78645313,9.19303125 1.78645313,9.59521875 C1.78645313,9.90887109 1.89007031,10.1688398 2.09633203,10.3751016 C2.30166797,10.5813867 2.561625,10.684043 2.87621484,10.684043 C3.27840234,10.684043 3.63350391,10.5295781 3.94243359,10.220625 L9.65314453,4.50331641 C10.0261289,4.13033203 10.2126328,3.68669531 10.2126328,3.17148047 C10.2126328,2.65155469 10.0336758,2.20698047 9.6748125,1.83964453 C9.31688672,1.47135937 8.87797266,1.28769141 8.35804688,1.28769141 C7.85790234,1.28769141 7.41331641,1.47607031 7.02621094,1.85377734 L2.56727344,6.32025 C2.51830078,6.37017187 2.46178125,6.39466406 2.39772656,6.39466406 C2.31955078,6.39466406 2.20463672,6.3193125 2.05582031,6.16955859 C1.90605469,6.01979297 1.83071484,5.90582813 1.83071484,5.82765234 C1.83071484,5.76832031 1.85520703,5.714625 1.90417969,5.66565234 L6.35651953,1.20671484 C6.92070703,0.6519375 7.59041016,0.375011719 8.36558203,0.375011719 C9.14546484,0.375011719 9.80479688,0.647214844 10.3445039,1.19163281 C10.8842109,1.73605078 11.1545391,2.39820703 11.1545391,3.17808984 C11.1545391,3.94385156 10.8776133,4.60883203 10.3228359,5.17301953 L4.60552734,10.882793 C4.11480469,11.3735156 3.53835938,11.6184141 2.87620313,11.6184141 C2.30165625,11.6184141 1.82128125,11.4253242 1.43321484,11.0372578 C1.04609766,10.6501406 0.852058594,10.1688281 0.852058594,9.59521875 C0.852058594,8.92270312 1.09788281,8.34720703 1.58767969,7.86589453 L1.58767969,7.86589453 L1.58769141,7.86589453 Z" id="路径" fill="#1890FF"></path>
                </g>
            </g>
        </g>
    </g>
</svg>