<?xml version="1.0" encoding="UTF-8"?>
<svg width="14px" height="14px" viewBox="0 0 14 14" version="1.1" xmlns="http://www.w3.org/2000/svg" xmlns:xlink="http://www.w3.org/1999/xlink">
    <title>切片</title>
    <g id="页面-1" stroke="none" stroke-width="1" fill="none" fill-rule="evenodd">
        <g id="邮箱" transform="translate(-415.000000, -190.000000)" fill-rule="nonzero">
            <g id="编组-10" transform="translate(374.000000, 178.000000)">
                <g id="旗帜,标记,标点" transform="translate(41.000000, 12.000000)">
                    <g transform="translate(0.000000, 0.000000)">
                        <rect id="矩形" fill="#FFFFFF" opacity="0" x="6.21724894e-15" y="6.21724894e-15" width="13.9863415" height="13.9863415"></rect>
                        <path d="M13.9875954,0.650019385 L13.9875954,0.65275056 L13.956176,7.75789942 L13.9356922,7.83710346 C13.9056493,7.94908159 13.7936712,8.23722043 13.4085757,8.45571435 C13.0944907,8.63324064 12.6670619,8.72336939 12.1385798,8.72336939 L12.071666,8.72336939 C11.403894,8.71381029 10.5544989,8.5649613 9.54533019,8.2822848 C8.93491283,8.11158644 8.38731246,8.04057591 7.89843234,8.04057591 C6.70490935,8.04057591 5.8637078,8.46117669 5.32566654,8.87221836 C4.95559248,9.15489486 4.82722732,9.65469968 5.01704389,10.0793972 L6.36078144,13.0959788 C6.50280248,13.412795 6.35805027,13.7896969 6.03986851,13.931718 C5.95656771,13.9685888 5.87053573,13.9863415 5.78450375,13.9863415 C5.54142927,13.9863415 5.3079139,13.845686 5.20412931,13.6108051 L0.0545009346,2.04564924 C-0.00285371902,1.91728407 -0.0137784176,1.7779942 0.0162645034,1.64826343 C0.0244580273,1.59773672 0.0367483063,1.54721 0.0558665288,1.49804887 C0.126877056,1.31232905 0.272994851,1.15801773 0.454617916,1.0774481 C0.984465645,0.839835975 1.83386072,0.506632751 2.87990032,0.274482976 C3.67057517,0.0983222595 4.42984151,0.00955910439 5.15360258,0.00955910439 C5.85551427,0.00955910439 6.52465187,0.0928599102 7.15418745,0.258095928 C8.68910718,0.660944084 9.78294232,0.819352172 10.6050257,0.819352172 C11.780796,0.819352172 12.4062348,0.497073647 12.9852437,0.109246958 L13.0125554,0.0914943298 C13.1136089,0.030042921 13.2283182,0 13.3416619,0 C13.4509089,0 13.5601558,0.0273117327 13.6584781,0.0833008059 C13.8619505,0.199375694 13.9889501,0.416504016 13.9875954,0.650019385 Z" id="路径" fill="#D82220"></path>
                    </g>
                </g>
            </g>
        </g>
    </g>
</svg>