<?xml version="1.0" encoding="UTF-8"?>
<svg width="14px" height="14px" viewBox="0 0 14 14" version="1.1" xmlns="http://www.w3.org/2000/svg" xmlns:xlink="http://www.w3.org/1999/xlink">
    <title>切片</title>
    <g id="页面-1" stroke="none" stroke-width="1" fill="none" fill-rule="evenodd" opacity="0.65280878">
        <g id="邮箱" transform="translate(-415.000000, -222.000000)" fill-rule="nonzero">
            <g id="编组-10" transform="translate(374.000000, 178.000000)">
                <g id="编组-9" transform="translate(0.000000, 36.000000)">
                    <g id="旗帜,标记,标点" transform="translate(41.000000, 8.000000)">
                        <rect id="矩形" fill="#FFFFFF" opacity="0" x="6.21724894e-15" y="6.21724894e-15" width="13.9863415" height="13.9863415"></rect>
                        <path d="M5.15410542,0.883621022 C5.77960532,0.883621022 6.3777908,0.957369922 6.93363896,1.10350199 C8.4441256,1.50092659 9.64595945,1.69349316 10.6074265,1.69349316 C11.7204886,1.69349316 12.4497832,1.44902923 13.1135233,1.06253038 L13.0848431,7.61525632 C13.0684545,7.6343764 13.0370429,7.66442224 12.9796827,7.69719954 C12.8772537,7.75455979 12.631424,7.85152593 12.1411304,7.85152593 L12.0865016,7.85152593 C11.4951447,7.84333162 10.7207813,7.70539387 9.7838972,7.44180984 C9.13518006,7.26016905 8.50148585,7.16730007 7.90056893,7.16730007 C6.42968819,7.16730007 5.4013008,7.71768535 4.79765243,8.1792988 C4.48490249,8.41829984 4.26502152,8.73787839 4.15030101,9.09023423 L0.914909657,1.83006518 C1.416129,1.61154993 2.17137233,1.32748011 3.071382,1.12671924 C3.79521375,0.965564238 4.49582825,0.883621022 5.15410542,0.883621022 M13.34433,7.10542736e-15 C13.2296095,7.10542736e-15 13.1162547,0.0300458439 13.0151914,0.0915032624 L12.987877,0.109257625 C12.4088116,0.497122189 11.7833117,0.81943217 10.6074265,0.81943217 C9.7838972,0.81943217 8.69132097,0.66100862 7.15625136,0.258121128 C6.5252886,0.0928689795 5.85608565,0.00956004683 5.15410542,0.00956004683 C4.43027367,0.00956004683 3.67093318,0.0969661444 2.88018116,0.273144057 C1.8340394,0.506682222 0.984561391,0.83991798 0.454661924,1.07755331 C0.273021116,1.15813081 0.126889048,1.31245719 0.0558715961,1.49819515 C0.0367515161,1.54736108 0.0244600351,1.59789273 0.0162657054,1.64842439 C-0.0137801385,1.77816781 -0.00285437463,1.91747128 0.054505879,2.045849 L5.20463708,13.6107684 C5.30843182,13.8456723 5.54196999,13.9863415 5.7850682,13.9863415 C5.87110858,13.9863415 5.95714896,13.9685871 6.04045789,13.9317127 C6.35867072,13.7896778 6.50343707,13.412739 6.36140216,13.0958918 L5.0175334,10.0803814 C4.82769828,9.65564244 4.95607598,9.15578881 5.32618618,8.87308471 C5.86427998,8.4620029 6.70556368,8.04136106 7.8992032,8.04136106 C8.38813106,8.04136106 8.93715062,8.11237851 9.54626187,8.28309354 C10.5541634,8.56716336 11.4050072,8.71466115 12.0728444,8.72422119 L12.1397647,8.72422119 C12.6682984,8.72422119 13.0957689,8.63408365 13.4098846,8.45654002 C13.7950177,8.23802477 13.9070068,7.9498578 13.9370526,7.83786874 L13.9575384,7.75865695 L13.9889609,0.652814291 L13.9889609,0.650082857 C13.9903157,0.416544691 13.8633037,0.199395157 13.6598114,0.0833089327 C13.5614795,0.0286801268 13.4522219,7.10542736e-15 13.34433,7.10542736e-15 Z" id="形状" fill="#000000"></path>
                    </g>
                </g>
            </g>
        </g>
    </g>
</svg>