<?xml version="1.0" encoding="UTF-8"?>
<svg width="4px" height="12px" viewBox="0 0 4 12" version="1.1" xmlns="http://www.w3.org/2000/svg" xmlns:xlink="http://www.w3.org/1999/xlink">
    <title>切片</title>
    <defs>
        <polygon id="path-1" points="0 0 4 0 4 12 0 12"></polygon>
    </defs>
    <g id="页面-1" stroke="none" stroke-width="1" fill="none" fill-rule="evenodd">
        <g id="邮箱" transform="translate(-444.000000, -224.000000)">
            <g id="编组-10" transform="translate(374.000000, 178.000000)">
                <g id="编组-9" transform="translate(0.000000, 36.000000)">
                    <g id="jinji" transform="translate(70.000000, 10.000000)">
                        <mask id="mask-2" fill="white">
                            <use xlink:href="#path-1"></use>
                        </mask>
                        <g id="Clip-2"></g>
                        <path d="M0.562792053,0.507947857 C0.938931374,0.169198651 1.41634593,0 1.99927646,0 C2.58252856,0 3.06048578,0.167506162 3.43646431,0.501144385 C3.81095557,0.835771291 3.99772889,1.2539837 3.99772889,1.75735681 C3.99772889,2.19023188 3.21656902,5.37320086 2.95685904,7.68879424 L1.07789089,7.68879424 C0.849835697,5.37320086 0.00356771992,2.19023188 0.00356771992,1.75735681 C0.00200982806,1.26170883 0.189024329,0.845188904 0.562792053,0.507947857 Z M3.40953261,11.5185622 C3.0134558,11.8406714 2.54341731,12 1.99927646,12 C1.45551748,12 0.984715258,11.8406714 0.589181096,11.5185622 C0.195154305,11.1989834 -0.00120589684,10.811219 -0.00120589684,10.3551686 C-0.00120589684,9.90166526 0.194752339,9.50957751 0.589181096,9.18156974 C0.984715258,8.85217112 1.45497483,8.68892132 1.99927646,8.68892132 C2.54389967,8.68892132 3.01407885,8.85349495 3.40953261,9.18156974 C3.80317754,9.51049916 4,9.90265394 4,10.3551686 C3.99991961,10.8108168 3.80317754,11.198665 3.40953261,11.5185622 Z" id="Fill-1" fill="#D93737" mask="url(#mask-2)"></path>
                    </g>
                </g>
            </g>
        </g>
    </g>
</svg>