<?xml version="1.0" encoding="UTF-8"?>
<svg width="14px" height="12px" viewBox="0 0 14 12" version="1.1" xmlns="http://www.w3.org/2000/svg" xmlns:xlink="http://www.w3.org/1999/xlink">
    <title>切片</title>
    <defs>
        <polygon id="path-1" points="0 0 14 0 14 11 0 11"></polygon>
    </defs>
    <g id="页面-1" stroke="none" stroke-width="1" fill="none" fill-rule="evenodd">
        <g id="邮箱" transform="translate(-453.000000, -191.000000)">
            <g id="编组-10" transform="translate(374.000000, 178.000000)">
                <g id="weidu" transform="translate(79.000000, 13.000000)">
                    <g id="编组" transform="translate(0.000000, 1.000000)">
                        <mask id="mask-2" fill="white">
                            <use xlink:href="#path-1"></use>
                        </mask>
                        <g id="Clip-2"></g>
                        <path d="M8.83688794,5.37502806 C8.83688794,5.37502806 8.91393376,5.37502806 8.83688794,5.37502806 L11.6528556,8.31504008 C11.8101722,8.48390681 12.123193,8.48390681 12.2789561,8.31504008 C12.4362727,8.14617335 12.4362727,7.81008633 12.2789561,7.64295049 C12.2789561,7.64295049 9.54005394,4.78737184 9.46300812,4.70293847 C9.69737056,4.45130593 13.6082423,0 13.6082423,0 C13.8426834,0.420520378 14,0.840956323 14,1.34251162 L14,8.48050837 C14,9.90739003 12.9837346,11 11.6528556,11 L2.34596455,11 C1.01508554,11 -0.00117987471,9.90912091 -0.00117987471,8.48050837 L-0.00117987471,1.34415807 C-0.00117987471,0.839288764 0.156136753,0.420520378 0.311919544,0.0861642498 C0.311919544,0.0861642498 4.38010787,4.45303682 4.69312863,4.70460603 L4.61447032,4.7890394 L2.03294379,7.64295049 C1.87562716,7.81181722 1.87562716,8.1478198 2.03294379,8.31504008 C2.19026042,8.48390681 2.50328118,8.48390681 2.65906397,8.31504008 L5.31924881,5.37502806 C6.17979043,6.21598439 6.64859398,6.63312743 7.11739753,6.63312743 C7.58620108,6.63312743 8.05500464,6.13155102 8.83688794,5.37502806 Z" id="Fill-1" fill="#FFCA61" mask="url(#mask-2)"></path>
                    </g>
                    <path d="M0.933333333,0.532889084 C1.32381947,0.178208874 1.79301297,8.8817842e-16 2.34248838,8.8817842e-16 L11.6575116,8.8817842e-16 C12.2054322,8.8817842e-16 12.6746453,0.178208874 13.0666667,0.532889084 C13.0666667,0.532889084 7.66603079,7 7.19528243,7 C6.57015034,7 0.933333333,0.532889084 0.933333333,0.532889084 Z" id="Fill-3" fill="#FFE49B"></path>
                </g>
            </g>
        </g>
    </g>
</svg>