<?xml version="1.0" encoding="UTF-8"?>
<svg width="14px" height="15px" viewBox="0 0 14 15" version="1.1" xmlns="http://www.w3.org/2000/svg" xmlns:xlink="http://www.w3.org/1999/xlink">
    <title>切片</title>
    <defs>
        <polygon id="path-1" points="0 0 14 0 14 10.3125 0 10.3125"></polygon>
    </defs>
    <g id="页面-1" stroke="none" stroke-width="1" fill="none" fill-rule="evenodd">
        <g id="邮箱" transform="translate(-453.000000, -251.000000)">
            <g id="编组-10" transform="translate(374.000000, 178.000000)">
                <g id="编组-9备份" transform="translate(0.000000, 67.000000)">
                    <g id="yidu" transform="translate(79.000000, 6.000000)">
                        <g id="编组" transform="translate(0.000000, 4.687500)">
                            <mask id="mask-2" fill="white">
                                <use xlink:href="#path-1"></use>
                            </mask>
                            <g id="Clip-2"></g>
                            <path d="M8.8125123,5.04220026 C8.8125123,5.04220026 8.88805823,5.04220026 8.8125123,5.04220026 L11.6328743,7.80401928 C11.7839662,7.95602622 12.1113516,7.95602622 12.2624238,7.80401928 C12.4135156,7.65199254 12.4135156,7.32258149 12.2624238,7.17057455 C12.2624238,7.17057455 9.51760771,4.48476889 9.44206177,4.40875553 C9.66869959,4.18073522 13.5970687,0 13.5970687,0 C13.8237065,0.405424422 14,0.785471465 14,1.26688946 L14,7.95602622 C14,9.29892905 12.9927208,10.3125 11.6580956,10.3125 L2.34072398,10.3125 C1.00607909,10.3125 -0.00118040527,9.29892905 -0.00118040527,7.95602622 L-0.00118040527,1.26688946 C-0.00118040527,0.785471465 0.14991147,0.405424422 0.300983671,0.0760133676 C0.300983671,0.0760133676 4.38046429,4.18073522 4.68262837,4.40875553 L4.60708243,4.48476889 L2.01333858,7.17057455 C1.86226638,7.32258149 1.86226638,7.65199254 2.01333858,7.80401928 C2.16443045,7.95602622 2.49181586,7.95602622 2.64288806,7.80401928 L5.31217785,5.04220026 C6.16844383,5.82767172 6.64690144,6.23307635 7.10015739,6.23307635 C7.55341334,6.23307635 8.03187094,5.75165835 8.8125123,5.04220026 Z" id="Fill-1" fill="#C0C3CC" mask="url(#mask-2)"></path>
                        </g>
                        <path d="M7.15102727,0 C6.52170602,0 0.933333333,4.00095486 0.933333333,4.00095486 C0.933333333,4.00095486 6.57211072,9.375 7.20143197,9.375 C7.67971611,9.375 13.0666667,4.00095486 13.0666667,4.00095486 C13.0666667,4.00095486 7.62933108,0 7.15102727,0 Z" id="Fill-3" fill="#E1E2E6"></path>
                    </g>
                </g>
            </g>
        </g>
    </g>
</svg>