<?xml version="1.0" standalone="no"?><!DOCTYPE svg PUBLIC "-//W3C//DTD SVG 1.1//EN" "http://www.w3.org/Graphics/SVG/1.1/DTD/svg11.dtd"><svg t="1619684191266" class="icon" viewBox="0 0 1024 1024" version="1.1" xmlns="http://www.w3.org/2000/svg" p-id="2672" xmlns:xlink="http://www.w3.org/1999/xlink" width="200" height="200"><defs><style type="text/css"></style></defs><path d="M634.88 321.536c0 32.768-26.624 59.392-59.392 59.392s-59.392-26.624-59.392-59.392 26.624-59.392 59.392-59.392 59.392 26.624 59.392 59.392zM389.12 526.848s34.304-128.512 138.24-122.368c103.936 6.144 32.256 118.272-6.144 226.816-38.912 108.544 48.128 32.256 70.144-3.584 0 0-45.056 183.808-176.64 120.832-61.952-29.696 15.36-179.712 49.664-246.784 33.28-66.56-36.352-27.648-75.264 25.088z" p-id="2673"></path><path d="M512 975.36C256.512 975.36 48.64 767.488 48.64 512S256.512 48.64 512 48.64 975.36 256.512 975.36 512 767.488 975.36 512 975.36z m0-839.68c-207.36 0-376.32 168.96-376.32 376.32S304.64 888.32 512 888.32 888.32 719.36 888.32 512 719.36 135.68 512 135.68z" p-id="2674"></path></svg>