<?xml version="1.0" encoding="UTF-8"?>
<svg width="48px" height="48px" viewBox="0 0 48 48" version="1.1" xmlns="http://www.w3.org/2000/svg" xmlns:xlink="http://www.w3.org/1999/xlink">
    <title>切片</title>
    <g id="页面-1" stroke="none" stroke-width="1" fill="none" fill-rule="evenodd">
        <g id="邮箱" transform="translate(-1607.000000, -863.000000)" fill-rule="nonzero">
            <g id="编组-11" transform="translate(1595.000000, 851.000000)">
                <g id="邮箱" transform="translate(12.000000, 12.000000)">
                    <rect id="矩形" fill="#000000" opacity="0" x="0" y="0" width="48" height="48"></rect>
                    <path d="M40.944,0 L7.056,0 C3.168,0 0,3.168 0,7.056 L0,40.944 C0,44.832 3.168,48 7.056,48 L40.944,48 C44.832,48 48,44.832 48,40.944 L48,7.056 C48,3.168 44.832,0 40.944,0 Z M38.04,30.792 C38.04,32.736 36.456,34.296 34.536,34.296 L13.464,34.296 C11.52,34.296 9.96,32.736 9.96,30.792 L9.96,17.208 C9.96,15.264 11.52,13.704 13.464,13.704 L34.512,13.704 C36.456,13.704 38.016,15.264 38.016,17.208 L38.016,30.792 L38.04,30.792 Z" id="形状" fill="#4873ED"></path>
                    <path d="M33.5416199,20.1455088 L24.00545,26.0188969 L14.4692801,20.1455088 C14.0302749,19.8658236 13.4449345,20.0056662 13.1522643,20.4251939 C12.8595942,20.8447216 13.0059293,21.4040919 13.4449345,21.6837771 L23.4932772,27.8601574 C23.6396123,27.9533858 23.8347257,28 24.00545,28 C24.1761743,28 24.3712877,27.9533858 24.5176228,27.8601574 L34.5659655,21.6837771 C35.0002793,21.4067158 35.1292813,20.8519623 34.8586357,20.4251939 C34.5687112,20.0101495 33.988202,19.886871 33.5416199,20.1455088 L33.5416199,20.1455088 Z" id="路径" fill="#4873ED"></path>
                </g>
            </g>
        </g>
    </g>
</svg>